<?xml version="1.0" standalone="no"?>
<!DOCTYPE svg PUBLIC "-//W3C//DTD SVG 20010904//EN"
 "http://www.w3.org/TR/2001/REC-SVG-20010904/DTD/svg10.dtd">
<svg version="1.0" xmlns="http://www.w3.org/2000/svg"
 width="140" height="140" viewBox="0 0 1280.000000 853.000000"
 preserveAspectRatio="xMidYMid meet">
<metadata>
Created by potrace 1.15, written by Peter Selinger 2001-2017
</metadata>
<g transform="translate(0.000000,853.000000) scale(0.100000,-0.100000)"
fill="#FFDB6E" stroke="none">
<path d="M1890 8435 l-245 -91 -64 57 c-35 32 -93 72 -127 90 -54 27 -71 31
-114 27 -41 -4 -58 -12 -86 -39 -46 -44 -109 -150 -150 -251 -17 -43 -34 -81
-37 -84 -3 -3 -11 12 -17 33 -41 125 -139 288 -194 322 -76 47 -178 10 -317
-114 -46 -41 -87 -75 -92 -75 -4 0 -97 45 -207 100 -110 55 -203 100 -206 100
-3 0 21 -18 55 -41 91 -61 167 -134 191 -185 12 -25 20 -47 17 -50 -10 -11
-78 26 -123 68 -25 23 -67 72 -92 108 -25 36 -50 70 -55 75 -5 6 37 -83 94
-196 l103 -207 -77 -87 c-128 -146 -163 -245 -115 -323 27 -44 141 -119 253
-166 48 -20 91 -36 96 -36 25 0 4 -18 -33 -29 -62 -19 -195 -86 -251 -127
-130 -95 -114 -206 57 -392 97 -104 119 -135 135 -184 15 -46 4 -87 -37 -141
-32 -42 -145 -136 -208 -173 l-45 -26 83 -57 c104 -71 182 -146 203 -197 13
-32 14 -47 5 -86 -12 -48 -30 -73 -157 -211 -34 -38 -76 -96 -93 -129 -51
-103 -38 -168 47 -233 53 -40 204 -118 264 -136 21 -7 39 -15 39 -19 0 -4 -18
-12 -39 -19 -55 -16 -207 -93 -259 -131 -124 -90 -107 -204 59 -386 141 -153
162 -195 138 -266 -17 -51 -102 -138 -207 -209 l-79 -54 77 -52 c98 -67 172
-139 200 -193 19 -38 20 -47 10 -89 -13 -53 -36 -85 -140 -197 -164 -177 -181
-294 -58 -385 53 -39 199 -112 256 -129 49 -15 53 -25 15 -35 -98 -24 -301
-145 -334 -198 -48 -79 -8 -180 131 -333 167 -182 176 -242 52 -363 -32 -32
-91 -79 -130 -105 -40 -26 -72 -51 -72 -55 0 -4 19 -18 42 -31 45 -25 159
-119 195 -160 12 -14 30 -42 39 -63 16 -35 16 -41 1 -90 -13 -41 -37 -75 -116
-161 -124 -136 -166 -211 -159 -288 5 -47 10 -57 53 -95 55 -51 142 -101 240
-139 39 -15 73 -30 78 -34 4 -3 -31 -21 -78 -39 -113 -44 -239 -123 -270 -169
-53 -78 -18 -180 110 -323 41 -46 75 -87 75 -92 0 -4 -45 -98 -101 -210 -56
-111 -97 -197 -92 -192 5 6 33 42 61 82 60 81 117 136 167 160 43 21 50 14 32
-30 -21 -49 -77 -108 -160 -169 -40 -28 -76 -56 -82 -61 -5 -5 81 36 192 92
112 56 208 101 214 101 7 0 44 -30 83 -68 108 -103 214 -155 279 -138 68 17
148 123 217 288 38 92 38 92 51 63 101 -248 182 -355 268 -355 63 0 157 54
262 150 98 91 174 140 216 140 64 0 154 -76 250 -212 30 -43 56 -78 58 -78 2
0 28 36 59 79 93 133 184 211 245 211 42 0 123 -52 214 -137 101 -94 204 -153
267 -153 42 0 85 28 131 86 34 43 113 197 131 256 6 21 14 38 17 38 3 0 17
-28 30 -62 76 -200 170 -318 251 -318 63 0 167 59 267 153 95 89 172 137 220
137 59 0 165 -94 249 -222 25 -37 49 -68 52 -68 4 1 30 35 59 78 87 129 183
212 245 212 46 -1 108 -40 213 -135 116 -104 203 -155 266 -155 75 0 155 90
230 259 21 47 39 91 39 98 0 36 20 14 45 -50 55 -143 134 -260 198 -293 70
-37 171 7 312 136 105 96 175 140 223 140 61 0 160 -87 248 -219 26 -39 50
-71 54 -71 4 0 28 32 54 71 87 130 187 219 246 219 46 0 123 -48 225 -140 104
-94 176 -138 243 -147 49 -7 89 13 136 68 37 44 111 180 141 261 19 51 29 54
40 11 13 -53 94 -210 134 -261 52 -66 91 -86 148 -78 69 9 136 50 241 146 97
90 175 140 219 140 62 0 176 -101 258 -228 22 -34 43 -62 46 -62 3 0 22 24 41
53 94 140 199 237 260 237 49 0 125 -47 223 -139 112 -104 186 -145 262 -146
47 0 56 4 93 40 51 49 118 161 156 260 16 41 32 75 35 75 4 0 10 -12 14 -28 3
-15 26 -69 50 -120 76 -161 142 -232 216 -232 61 0 166 62 270 157 95 88 166
133 208 133 62 0 163 -89 255 -223 l51 -74 245 92 245 91 64 -57 c76 -68 155
-110 219 -116 40 -4 53 0 88 25 22 16 58 56 79 88 33 49 96 181 119 249 6 15
16 -1 46 -73 70 -170 150 -275 219 -288 71 -14 168 35 280 141 37 36 74 65 80
65 6 0 101 -45 211 -100 110 -55 203 -100 207 -100 4 0 -20 18 -55 41 -34 22
-86 63 -116 89 -52 48 -107 133 -94 145 24 24 132 -63 210 -168 33 -45 62 -84
65 -87 3 -3 -42 89 -100 205 l-104 210 75 80 c78 84 142 195 142 248 0 83
-115 178 -307 252 -40 16 -70 31 -68 35 2 4 26 15 52 25 160 59 304 161 318
225 16 74 -27 159 -152 297 -132 147 -157 209 -112 282 30 50 106 120 197 182
l80 55 -46 30 c-89 56 -188 142 -220 189 -57 87 -39 139 103 299 111 124 148
189 149 261 1 59 -15 85 -89 140 -50 38 -210 118 -259 131 -34 8 -33 20 2 29
15 3 73 29 128 56 108 52 184 112 210 162 36 69 -13 176 -147 321 -134 145
-154 204 -100 287 40 60 81 97 182 166 l86 58 -80 54 c-89 61 -166 132 -196
182 -46 75 -16 146 123 296 113 123 157 210 141 283 -10 47 -87 114 -195 169
-54 27 -117 55 -139 62 -23 7 -41 15 -41 18 0 3 33 19 73 35 196 77 307 169
307 253 0 57 -64 164 -158 265 -94 102 -132 164 -132 214 0 64 88 162 228 254
l73 48 -48 29 c-82 51 -182 137 -218 188 -63 88 -42 150 110 314 90 97 133
169 142 241 12 90 -78 162 -352 280 l-30 13 30 11 c17 6 75 33 130 59 152 74
225 143 225 212 0 56 -62 165 -142 250 l-76 80 105 210 c58 115 101 206 96
200 -5 -5 -33 -42 -61 -82 -29 -39 -71 -88 -93 -108 -42 -37 -106 -71 -117
-60 -10 10 27 74 70 121 24 26 72 67 108 92 36 25 70 50 75 55 6 5 -81 -36
-192 -92 -112 -56 -206 -101 -211 -101 -4 0 -46 34 -92 75 -141 126 -240 161
-318 113 -44 -27 -119 -141 -166 -253 -20 -48 -36 -91 -36 -96 0 -25 -18 -4
-30 33 -17 57 -90 203 -129 256 -91 124 -202 107 -387 -60 -115 -104 -141
-123 -188 -138 -80 -26 -167 37 -282 200 -30 44 -57 80 -59 80 -2 0 -29 -36
-59 -80 -73 -104 -154 -183 -204 -199 -71 -24 -120 1 -264 135 -186 171 -297
187 -392 57 -41 -56 -109 -189 -128 -250 -11 -38 -28 -58 -28 -34 0 5 -16 48
-36 96 -47 112 -122 226 -166 253 -81 51 -179 13 -341 -133 -110 -98 -140
-118 -193 -129 -69 -15 -160 55 -259 199 -32 47 -61 85 -64 85 -3 0 -24 -28
-46 -62 -53 -83 -149 -185 -198 -210 -29 -14 -49 -18 -75 -13 -56 10 -81 27
-188 124 -176 161 -289 198 -371 120 -44 -43 -112 -158 -154 -262 -30 -73 -33
-78 -42 -56 -43 108 -123 254 -164 299 -42 45 -54 53 -95 57 -80 9 -166 -40
-314 -178 -106 -100 -161 -122 -232 -93 -49 19 -136 109 -202 206 -25 37 -48
68 -51 68 -3 0 -28 -33 -54 -72 -100 -151 -197 -228 -268 -212 -53 11 -82 30
-192 129 -163 144 -262 183 -341 135 -54 -34 -152 -197 -193 -323 -14 -41 -25
-41 -36 0 -13 53 -94 210 -134 261 -104 131 -205 110 -420 -91 -92 -85 -118
-102 -173 -112 -26 -5 -46 -1 -75 13 -58 30 -164 145 -218 240 -11 17 -22 32
-25 32 -4 0 -29 -33 -56 -72 -68 -101 -163 -194 -212 -209 -72 -21 -114 1
-266 140 -182 166 -296 183 -386 59 -38 -52 -115 -204 -131 -259 -14 -46 -24
-50 -34 -11 -12 51 -95 216 -136 269 -21 29 -53 60 -69 68 -76 39 -181 -2
-312 -123 -150 -139 -201 -166 -273 -142 -49 16 -146 114 -210 211 l-50 76
-245 -92z m395 -356 c81 -128 155 -199 208 -199 37 0 134 84 192 167 91 129
120 164 151 184 114 70 300 -77 344 -271 20 -87 22 -88 36 -22 28 134 100 238
197 287 28 14 66 25 84 25 67 0 92 -23 217 -203 58 -83 156 -167 194 -167 43
0 84 32 143 111 66 88 106 153 170 273 l47 89 51 -100 c110 -215 237 -373 298
-373 54 0 137 75 224 202 82 119 137 168 187 168 92 0 221 -107 262 -218 12
-31 27 -81 33 -111 l11 -55 12 63 c35 170 168 321 283 321 67 0 92 -24 226
-214 56 -80 150 -156 193 -156 62 0 166 128 288 353 32 59 61 107 64 107 3 0
30 -46 60 -102 119 -220 230 -358 287 -358 58 1 127 60 215 185 110 155 144
185 208 185 77 0 199 -100 244 -201 14 -31 32 -85 39 -120 l13 -64 13 65 c26
135 101 243 203 296 102 52 152 28 255 -120 63 -91 154 -190 195 -212 46 -24
75 -17 124 28 54 49 151 193 224 331 l53 99 51 -99 c128 -243 235 -373 307
-373 42 0 142 94 228 215 94 133 127 159 194 152 58 -5 143 -60 193 -125 39
-52 73 -137 81 -205 3 -26 8 -46 10 -43 2 2 10 33 18 69 20 94 58 168 115 221
59 55 120 85 172 86 49 0 98 -43 175 -154 68 -98 94 -127 156 -177 67 -53 94
-52 158 8 58 54 131 160 216 315 l59 106 43 -81 c139 -261 241 -387 312 -387
39 0 137 84 195 167 123 176 152 203 215 203 80 -1 190 -84 239 -180 26 -51
35 -79 55 -165 6 -28 9 -24 29 45 31 104 61 162 113 220 52 58 99 78 140 58
17 -8 56 -54 96 -113 84 -123 151 -194 242 -253 39 -25 89 -60 113 -79 36 -30
42 -40 42 -73 0 -86 -110 -174 -279 -223 l-83 -24 58 -11 c170 -34 307 -156
322 -287 6 -54 -20 -84 -147 -175 -105 -75 -205 -171 -219 -210 -13 -35 5 -75
59 -127 59 -56 188 -141 311 -204 l101 -51 -103 -54 c-140 -73 -291 -175 -334
-226 -54 -63 -52 -92 12 -167 26 -30 72 -73 103 -95 31 -23 85 -61 119 -86
104 -74 121 -124 75 -216 -52 -105 -159 -182 -288 -208 -66 -14 -66 -20 4 -30
147 -21 309 -174 309 -292 0 -44 -29 -76 -154 -169 -117 -86 -200 -167 -216
-210 -25 -67 88 -170 332 -305 l135 -74 -116 -64 c-152 -84 -235 -140 -294
-198 -56 -55 -70 -84 -58 -117 16 -42 112 -136 205 -201 167 -117 191 -161
141 -262 -54 -109 -156 -183 -286 -207 -62 -12 -79 -27 -31 -27 32 0 121 -28
171 -55 79 -40 171 -170 171 -242 0 -44 -41 -89 -160 -173 -103 -74 -194 -162
-210 -205 -27 -71 83 -170 352 -317 l118 -64 -111 -59 c-197 -105 -335 -211
-358 -276 -18 -53 52 -136 210 -249 164 -117 183 -153 135 -257 -49 -104 -151
-179 -288 -210 l-71 -16 70 -18 c169 -43 293 -139 293 -229 0 -44 -13 -58
-130 -132 -107 -69 -183 -145 -256 -256 -77 -118 -91 -132 -131 -132 -92 0
-177 104 -229 280 -20 69 -23 73 -29 45 -20 -87 -29 -114 -55 -166 -38 -74
-81 -110 -180 -148 -45 -17 -86 -31 -91 -31 -20 0 -85 70 -149 159 -72 102
-162 195 -205 211 -73 28 -194 -115 -351 -414 l-28 -54 -64 116 c-80 146 -144
242 -199 299 -51 52 -83 66 -119 53 -42 -16 -132 -109 -204 -211 -38 -52 -85
-110 -106 -128 -32 -29 -43 -33 -79 -29 -125 15 -241 136 -275 288 -7 30 -16
64 -20 75 -7 17 -9 15 -9 -11 -1 -50 -38 -155 -70 -205 -52 -77 -159 -148
-225 -149 -49 0 -90 36 -175 154 -79 112 -163 198 -209 217 -68 27 -191 -112
-326 -371 l-53 -102 -55 105 c-68 130 -135 231 -199 301 -57 62 -92 79 -132
62 -43 -18 -140 -120 -213 -222 -107 -151 -148 -170 -252 -118 -103 51 -176
159 -205 303 l-11 55 -12 -63 c-28 -137 -103 -244 -208 -296 -102 -51 -144
-30 -258 130 -78 109 -163 196 -210 214 -71 27 -179 -97 -329 -376 -24 -46
-46 -83 -49 -83 -3 0 -30 46 -60 102 -143 264 -257 391 -322 357 -56 -30 -127
-103 -210 -217 -118 -160 -152 -178 -254 -127 -105 52 -180 159 -208 296 l-12
63 -11 -55 c-37 -180 -148 -310 -279 -325 -44 -5 -53 -2 -85 24 -19 17 -65 72
-102 124 -72 102 -168 202 -207 216 -18 7 -35 6 -56 -3 -65 -27 -187 -192
-284 -385 l-42 -83 -54 103 c-30 57 -84 148 -120 202 -92 137 -155 189 -206
169 -43 -17 -121 -96 -202 -206 -129 -174 -158 -189 -263 -141 -105 49 -179
152 -207 288 -14 66 -16 65 -36 -22 -28 -121 -94 -211 -192 -260 -113 -56
-148 -39 -268 129 -72 102 -162 195 -204 211 -36 13 -64 0 -120 -57 -59 -59
-114 -142 -198 -295 l-64 -116 -49 91 c-102 192 -211 339 -277 373 -19 10 -34
11 -53 4 -43 -16 -124 -99 -210 -216 -102 -137 -126 -157 -180 -151 -131 14
-243 137 -282 308 l-17 74 -8 -40 c-37 -178 -145 -325 -238 -325 -44 0 -56 12
-138 135 -67 101 -149 185 -238 240 -141 90 -168 127 -138 190 35 74 132 137
274 178 l82 24 -54 11 c-29 6 -79 20 -110 32 -111 41 -218 170 -218 262 0 49
43 98 154 175 138 96 216 181 216 236 0 64 -176 200 -409 317 l-64 32 89 47
c120 64 185 104 273 170 79 59 111 100 111 143 0 45 -86 137 -215 228 -64 45
-125 96 -136 113 -74 122 80 307 290 350 71 15 70 21 0 31 -151 22 -308 167
-309 285 0 51 31 92 122 156 176 125 248 200 248 258 0 63 -141 173 -406 319
l-62 33 132 73 c148 82 280 176 314 224 12 18 22 45 22 60 0 45 -87 137 -216
230 -65 46 -125 97 -136 113 -70 115 76 300 272 345 79 18 90 23 55 27 -51 7
-150 42 -197 72 -82 52 -148 152 -148 224 0 53 36 94 163 184 126 91 207 177
207 220 0 73 -101 157 -356 297 l-113 62 101 55 c221 118 368 236 368 296 0
54 -74 136 -206 229 -121 84 -164 132 -164 182 1 83 82 192 180 242 51 26 79
35 165 55 28 6 24 9 -45 29 -141 42 -239 106 -274 180 -31 65 -5 99 149 199
89 57 158 129 233 242 80 122 93 132 158 127 64 -5 168 -154 203 -293 l18 -71
11 54 c33 165 97 248 230 297 46 17 88 31 93 31 20 0 93 -78 153 -164 93 -132
175 -206 229 -206 60 0 176 144 297 367 l54 101 62 -112 c34 -62 74 -133 89
-157z"/>
<path d="M10528 3630 c-113 -20 -248 -70 -333 -123 -390 -241 -558 -713 -404
-1137 59 -161 183 -331 312 -428 l28 -20 -66 -98 c-219 -322 -412 -483 -740
-616 l-70 -28 285 5 c157 3 322 8 367 11 l83 6 99 -207 100 -206 69 50 c194
142 329 288 425 462 l54 99 59 -92 c70 -111 226 -273 359 -371 l90 -67 100
206 100 206 190 -6 c104 -3 271 -8 370 -11 l180 -5 -80 33 c-279 117 -440 234
-599 431 -69 87 -186 249 -186 258 0 3 19 24 41 48 106 111 189 255 236 407
24 80 27 103 27 253 0 138 -4 178 -22 242 -91 330 -353 592 -677 679 -89 23
-313 35 -397 19z"/>
</g>
</svg>
